Patient4_TMGait_0pt5_01_left_29_EMG.mot
version=1
nRows=23
nColumns=33
inDegrees=no
endheader
time	1LAddLong	2LGlutMax	3LGlutMed	4LIliopsoas	5LSemiMemb	6LBicFemLong	7LRecFem	8LVastMed	9LVastLat	10LGasMed	11LTibAnt	12lTibPost	13LPeroneusLong	14LSol	15LExtDigLong	16LFlexDigLong	17RAddLong	18RGlutMax	19RGlutMed	20RIliopsoas	21RSemiMemb	22RBicFemLong	23RRecFem	24RVastMed	25RVastLat	26RGasMed	27RTibAnt	28RTibPost	29RPeroneusLong	30RSol	31RExtDigLong	32RFlexDigLong
38.71	0.006256	0.26672	-0.055237	0.006256	0.027161	-0.042572	0.052948	0.01236	0.16464	-0.015259	0.025177	0.000153	0.11292	-0.033875	0.006866	-0.001373	0.004425	-0.16022	-0.045013	-0.001984	-0.059509	-0.1059	0.13092	0.25314	0.11749	-0.00946	0.062103	-0.016632	0.56305	-0.037384	-0.002441	-0.032501
38.711	0.00824	0.31509	-0.045929	0.01297	0.02121	-0.018616	0.046692	0.013428	0.15823	0.009766	0.019836	-0.002594	0.12772	-0.06546	0.010529	-0.010071	0.001068	-0.11734	-0.088959	0.011902	0.024414	-0.16052	0.23331	0.15091	-0.036621	0.013123	0.11154	-0.014801	0.29526	-0.075226	-0.002899	-0.030365
38.712	0.005188	0.31448	-0.077362	0.013733	-0.00824	-0.014954	0.029907	0.010071	0.15259	0.019073	0.01297	-0.001984	0.11139	-0.094147	0.014038	0.015411	-0.015564	-0.11383	-0.061951	0.058441	0.19623	-0.12833	0.21561	0.15701	-0.13168	0.039368	0.16403	-0.032501	0.30579	-0.17532	0	-0.02533
38.713	0.009918	0.31525	-0.079498	0.007172	-0.034943	-0.032654	0.01358	0.006256	0.14862	0.016327	0.005035	-0.003052	0.10544	-0.11093	0.028229	0.010681	-0.017548	-0.09964	-0.091248	0.086212	0.20538	-0.060425	0.18997	0.12894	-0.1297	-0.026855	0.31113	-0.19836	0.1976	-0.087128	0.005188	-0.016327
38.714	0.006866	0.31097	-0.10971	0.007019	0.002136	-0.04837	0.023804	0.012665	0.1506	0.04303	0.008698	-0.001984	0.089874	-0.099792	0.009155	0.030212	-0.007935	-0.070801	-0.014801	0.012512	0.093689	0.012512	-0.057068	0.12497	-0.097656	0.003662	0.30228	-0.16403	0.045471	0.2504	0.001373	-0.010223
38.715	0.007629	0.33798	-0.072479	0.01358	0.03067	-0.036469	0.028229	0.006104	0.14038	0.069427	0.02243	-0.010223	0.084534	-0.091095	0.021667	0.025177	-0.012817	0.011444	0.11444	-0.02533	0.027008	0.029297	-0.000305	0.08728	-0.060883	0.014648	0.1648	0.16937	0.046234	0.26947	-0.00351	-0.014343
38.716	0.006104	0.28458	0.006561	-0.001831	0.027161	-0.018005	0.033112	0.007629	0.12634	0.062256	0.003967	-0.001678	0.096436	0.00824	0.024567	0.028381	-0.020294	0.059204	0.20309	-0.012817	0.006714	0.002594	0.046539	0.041962	-0.042114	-0.080719	0.1239	0.10483	-0.28915	0.08316	-0.002899	-0.020447
38.717	0.004883	0.2475	-0.027313	0.002594	0.007324	-0.021515	0.036774	0.006561	0.13794	0.036011	0.02243	-0.005798	0.098724	0.071259	0.022736	0.00351	-0.007019	0.009766	0.20523	0.025482	-0.019379	0.058899	0.019226	0.006104	0.040588	-0.007782	0.095978	-0.015717	-0.58258	-0.36987	0.005798	-0.032349
38.718	-0.002899	0.24094	0.031891	0.018921	-0.016632	-0.006256	0.038757	0.012054	0.1236	0.01297	0.010376	-0.002594	0.10559	0.055695	0.015411	-0.011902	0.009308	0.008392	0.31357	0.077362	0.027924	0.063477	-0.00061	-0.033722	0.080566	0.024261	0.04837	-0.13534	-0.68375	-0.68863	-0.003815	-0.036163
38.719	-0.010834	0.24933	-0.000153	0.025635	-0.036163	0.011749	0.025635	0.005035	0.11856	-0.019531	0.013733	-0.005035	0.10101	-0.00885	0.013123	-0.014496	0.024719	-0.007477	0.35492	0.074158	0.069275	0.009308	0.023193	-0.078278	0.065918	-0.020752	0.041046	0.097656	-0.33341	-0.95871	-0.002289	-0.037537
38.72	-0.006409	0.26871	-0.037689	0.00412	-0.055389	-0.027618	0.023041	0.007629	0.11917	-0.010376	0.019989	-0.000458	0.071106	-0.058136	-0.012054	-0.028839	0.009918	-0.028534	0.39139	0.027466	0.040588	0.010223	0.016632	-0.030975	0.095673	-0.021362	0.014343	0.11124	-0.061493	-1.1644	-0.001373	-0.045776
38.721	-0.001068	0.2449	-0.055847	0.005798	-0.011444	-0.054474	0.028992	0.015259	0.13107	-0.03006	0.012512	-0.008087	0.057831	-0.037079	-0.00061	0.016632	-0.003967	-0.075531	0.066223	-0.013275	-0.10803	0.076599	-0.085297	0.00885	0.036011	-0.05722	0.057068	0.098419	-0.053864	-0.94376	0.004425	-0.041809
38.722	0.012207	0.24048	-0.096893	0.021667	0.094757	-0.043335	0.032349	0.007019	0.14069	-0.00885	0.011749	0.001831	0.066681	-0.025024	0.009308	0.019073	-0.007019	-0.067291	-0.57739	-0.07431	-0.14023	0.055847	-0.015564	0.010529	0.058136	-0.010834	0.029449	0.019226	0.072479	-0.13748	-0.007477	-0.027771
38.723	0.011902	0.23438	-0.10819	0.007782	0.071411	-0.021057	0.018921	0.009003	0.14572	0.027161	0.012207	-0.001373	0.063019	-0.079803	-0.003815	0.001526	-0.001221	-0.031738	-0.65857	-0.11292	0.02182	-0.032806	0.021667	0.049438	0.058289	0.02655	-0.020905	-0.012512	0.13855	1.0799	-0.000458	-0.016632
38.724	0.009155	0.24704	-0.11292	-0.002136	0.036163	-0.012665	0.027161	0.006866	0.14236	0.024261	0.023041	-0.007629	0.05127	-0.080872	0.010071	0.007019	0.005951	-0.057526	-0.29617	-0.093231	0.018311	-0.066376	0.11185	-0.009918	0.041046	-0.085144	-0.007629	0.029144	-0.010986	1.4125	0	-0.024414
38.725	0.014648	0.22705	-0.018005	0.004425	0.018616	0.004883	0.032501	0.003815	0.15442	0.02182	0.006104	-0.011749	0.045471	-0.16083	0.002289	0.00351	0.018158	-0.035095	-0.28641	0.007019	-0.000153	-0.10498	0.14954	-0.071869	0.19302	-0.11231	0.007477	0.014191	0.19959	0.41214	-0.003357	-0.029755
38.726	0.01297	0.21545	-0.000305	-0.00412	0.003357	-0.003967	0.032501	0.007935	0.15671	-0.010681	0.013428	0.001373	0.043488	-0.22995	0.004425	-0.011749	0.012512	-0.027008	0.13947	0.12741	-0.009155	-0.15808	0.2095	-0.042419	0.29083	-0.041504	0.022736	0.06546	0.28351	0.24628	-0.000763	-0.028534
38.727	0.005798	0.19943	-0.013885	0.010071	-0.006714	-0.02121	0.021973	0.002594	0.13718	-0.036926	0.004883	0	0.063782	-0.17639	-0.00473	0.002747	0.000153	-0.11795	-0.21118	0.055084	-0.032349	-0.075226	0.35202	-0.09903	0.21301	-0.048828	0.029297	0.020905	-0.05127	0.46219	-0.002136	-0.020599
38.728	0.002441	0.16129	-0.059509	0.000763	-0.00061	-0.01709	0.028076	0.005188	0.12848	-0.025635	0.002747	0.002441	0.080261	-0.14648	0.010834	-0.003204	0.001984	-0.10696	-0.12451	-0.005493	-0.029755	-0.008392	0.26291	-0.21164	0.17609	-0.055237	0.16586	-0.082092	-0.60913	0.37079	-0.00351	-0.023193
38.729	0.010986	0.1648	-0.079498	-0.00473	0.012512	-0.007629	0.028229	0.005798	0.11368	-0.019379	0.00412	-0.00351	0.067749	-0.039673	0.01358	-0.000305	-0.016479	-0.065613	0.26611	0.033722	0.010986	0.05722	-0.15793	-0.053253	0.121	0.057068	0.34668	-0.059052	-0.77484	0.10376	-0.006409	-0.014343
38.73	-0.000458	0.2005	-0.097656	0.000305	0.020142	-0.018005	0.006256	0.003662	0.10742	-0.003052	-0.000305	-0.004578	0.077209	-0.019989	0.01358	-0.004578	-0.016937	-0.056458	0.27664	0.063019	0.024719	0.08728	-0.38696	-0.053711	-0.045166	0.057983	0.59738	-0.18341	-0.47653	0.21515	-0.002747	-0.022736
38.731	-0.007172	0.2002	-0.044861	-0.000458	0.045776	-0.018921	0.025787	0.002441	0.12054	-0.002289	0.006714	-0.008392	0.080719	0.000916	0.014038	0.001678	-0.005035	-0.063934	-0.083923	0.066986	0.021362	0.10254	-0.27268	-0.017853	-0.44083	0.063934	0.7814	0.018463	-0.17578	0.25162	-0.003662	-0.002747
38.732	0.007629	0.15274	-0.022278	0.013733	0.014191	0.000153	0.008392	0.000153	0.11276	-0.033417	-0.002899	-0.010071	0.084839	-0.009003	0.014343	0.010071	0.005646	-0.081787	-0.26291	0.02533	0.004578	0.14511	-0.1091	0.043945	-0.5661	0.070343	0.57892	0.14099	0.030823	0.38208	-0.00473	-0.005493
